<svg id="filled_outline" height="512" viewBox="0 0 512 512" width="512" xmlns="http://www.w3.org/2000/svg" data-name="filled outline"><path d="m24 72h464v400a16 16 0 0 1 -16 16h-432a16 16 0 0 1 -16-16z" fill="#548aff"/><path d="m24 72v-32a16 16 0 0 1 16-16h432a16 16 0 0 1 16 16v32z" fill="#7dafff"/><circle cx="88" cy="128" fill="#ffc431" r="24"/><path d="m64 184h384v208h-384z" fill="#a6cfff"/><path d="m72 435.31371a11.31369 11.31369 0 0 1 11.3137-11.31371h9.3726a11.31369 11.31369 0 0 1 11.3137 11.3137 11.31372 11.31372 0 0 1 -3.31371 8l-12.68629 12.6863-12.68629-12.68629a11.31372 11.31372 0 0 1 -3.31371-8z" fill="#fa8669"/><circle cx="144" cy="440" fill="#91c0ff" r="16"/><path d="m233.88853 240h60.22294a75.77707 75.77707 0 0 1 33.88853 8v16l-8 8v72h-88z" fill="#ffc431"/><path d="m280 344 35.70847-29.75706a44.19275 44.19275 0 0 1 28.29153-10.24294 44.19275 44.19275 0 0 1 28.29151 10.24294l35.70849 29.75706z" fill="#ffe28f"/><path d="m200 344v-72l-8-8v-16a75.77707 75.77707 0 0 1 33.88851-8h12.22294a75.77707 75.77707 0 0 1 33.88855 8v16l-8 8v72z" fill="#ffd873"/><path d="m224 320v24h-112v-24a23.99928 23.99928 0 0 1 16.10986-22.66 23.72477 23.72477 0 0 1 7.89014-1.34h64a24.00619 24.00619 0 0 1 24 24z" fill="#ffa100"/><path d="m472 16h-432a24.0275 24.0275 0 0 0 -24 24v432a24.0275 24.0275 0 0 0 24 24h432a24.0275 24.0275 0 0 0 24-24v-432a24.0275 24.0275 0 0 0 -24-24zm-432 16h432a8.00917 8.00917 0 0 1 8 8v24h-448v-24a8.00917 8.00917 0 0 1 8-8zm432 448h-432a8.00917 8.00917 0 0 1 -8-8v-392h448v392a8.00917 8.00917 0 0 1 -8 8z"/><circle cx="48" cy="48" r="8"/><circle cx="72" cy="48" r="8"/><circle cx="96" cy="48" r="8"/><path d="m88 160a32 32 0 1 0 -32-32 32.03635 32.03635 0 0 0 32 32zm0-48a16 16 0 1 1 -16 16 16.01833 16.01833 0 0 1 16-16z"/><path d="m136 104h48v16h-48z"/><path d="m200 104h64v16h-64z"/><path d="m136 136h24v16h-24z"/><path d="m176 136h48v16h-48z"/><path d="m448 176h-384a8.00008 8.00008 0 0 0 -8 8v208a8.00008 8.00008 0 0 0 8 8h384a8.00008 8.00008 0 0 0 8-8v-208a8.00008 8.00008 0 0 0 -8-8zm-8 208h-368v-192h368z"/><path d="m368 432h32v16h-32z"/><path d="m416 432h32v16h-32z"/><path d="m92.68652 416h-9.373a19.31389 19.31389 0 0 0 -13.65723 32.97021l12.68652 12.68653a8.00063 8.00063 0 0 0 11.31446 0l12.68652-12.687a19.31355 19.31355 0 0 0 -13.65727-32.96974zm2.34278 21.65674-7.0293 7.02978-7.0293-7.02929a3.31388 3.31388 0 0 1 2.34278-5.65723h9.373a3.31353 3.31353 0 0 1 2.34278 5.65674z"/><path d="m144 416a24 24 0 1 0 24 24 24.02718 24.02718 0 0 0 -24-24zm0 32a8 8 0 1 1 8-8 8.00917 8.00917 0 0 1 -8 8z"/><path d="m424 352v-16h-13.10425l-33.48266-27.90283a52.11065 52.11065 0 0 0 -49.41309-9.57044v-23.21325l5.65723-5.65674a8.00035 8.00035 0 0 0 2.34277-5.65674v-16a7.99967 7.99967 0 0 0 -4.42188-7.15527 84.20886 84.20886 0 0 0 -37.46679-8.84473h-68.22266a84.20886 84.20886 0 0 0 -37.46679 8.84473 7.99967 7.99967 0 0 0 -4.42188 7.15527v16a8.00035 8.00035 0 0 0 2.34277 5.65674l5.65723 5.65726v12.686h-56a32.03635 32.03635 0 0 0 -32 32v16h-16v16zm-56.8291-31.61084 18.73315 15.61084h-83.80805l18.73315-15.61084a36.19365 36.19365 0 0 1 46.3418 0zm-73.05957-72.38916a68.16633 68.16633 0 0 1 25.88867 5.14209v7.54443l-5.65723 5.65674a8.00035 8.00035 0 0 0 -2.34277 5.65674v34.97131c-.47534.3689-.94971.73963-1.41309 1.12586l-33.48266 27.90283h-5.10425v-60.686l5.65723-5.65722a8.00035 8.00035 0 0 0 2.34277-5.65678v-16zm-94.11133 5.14209a68.16633 68.16633 0 0 1 25.88867-5.14209h12.22266a68.16633 68.16633 0 0 1 25.88867 5.14209v7.54391l-5.65723 5.65722a8.00035 8.00035 0 0 0 -2.34277 5.65678v64h-24v-16a32.0573 32.0573 0 0 0 -24-30.9873v-17.0127a8.00035 8.00035 0 0 0 -2.34277-5.65674l-5.65723-5.65726zm-80 66.85791a16.02366 16.02366 0 0 1 11.397-15.318l5.44776 10.89563a7.99986 7.99986 0 0 0 15.15524-3.57763v-8h3.05591l5.78882 11.57764a7.99986 7.99986 0 0 0 15.15527-3.57764v-8h3.05591l5.78882 11.57764a7.99986 7.99986 0 0 0 15.15527-3.57764v-8a16.01833 16.01833 0 0 1 16 16v16h-96z"/></svg>