<svg id="Capa_1" enable-background="new 0 0 512 512" height="512" viewBox="0 0 512 512" width="512" xmlns="http://www.w3.org/2000/svg"><g><g><g><path d="m315.544 489.132c0 12.628-10.25 22.868-22.891 22.868h-64.643l-40.661-20.583-40.651 20.583h-85.103c-6.325 0-12.043-2.563-16.184-6.7s-6.706-9.859-6.706-16.168c0-44.521 35.922-80.603 80.241-80.603h116.359c22.159 0 42.217 9.026 56.742 23.609 14.514 14.583 23.497 34.734 23.497 56.994z" fill="#ffa1ac"/></g><g><g><g><g><path d="m312.65 432.138c-14.526-14.583-34.583-23.609-56.742-23.609h-30.905c22.159 0 42.217 9.026 56.742 23.609 14.515 14.583 23.498 34.734 23.498 56.994 0 12.628-10.25 22.868-22.891 22.868h30.905c12.64 0 22.891-10.24 22.891-22.868 0-22.26-8.983-42.411-23.498-56.994z" fill="#ff6e80"/></g></g></g></g><g><path d="m235.364 96.911c-14.412 0-28.24 2.523-41.067 7.151-4.468 1.612-9.354 1.612-13.821 0-12.827-4.628-26.655-7.151-41.067-7.151-67.016 0-121.343 54.516-121.343 121.766 0 10.744 1.387 21.163 3.99 31.087l310.005.199c2.637-9.983 4.043-20.47 4.043-31.286 0-67.25-68.221-121.766-100.74-121.766z" fill="#8991a6"/></g><g><g><path d="m235.364 96.911c-7.026 0-13.912.604-20.612 1.755 57.205 9.816 100.748 59.807 100.748 120.011 0 10.807-1.403 21.285-4.037 31.261l41.201.025c2.637-9.983 4.043-20.47 4.043-31.286 0-67.25-54.326-121.766-121.343-121.766z" fill="#5d6a85"/></g></g><g><path d="m118.944 408.529 27.751 103.471h81.312l27.9-103.471z" fill="#fff"/></g><g><path d="m58.119 248.147c-3.394-1.027-17.295-1.578-21.023-1.578-20.487 0-37.096 16.667-37.096 37.226s16.609 37.226 37.097 37.226c4.072 0 18.292-.658 21.957-1.874z" fill="#ffcbbe"/></g><g><path d="m337.186 246.569c-3.728 0-17.629.552-21.023 1.578l-.934 70.999c3.665 1.216 17.885 1.874 21.957 1.874 20.488 0 37.097-16.667 37.097-37.226s-16.61-37.225-37.097-37.225z" fill="#ffcbbe"/></g><path d="m305.859 246.433c-5.168-20.595-12.434-41.615-27.68-55.422-30.404-27.533-63.362-27.145-63.362-27.145-6.921 1.272-13.648 3.103-20.132 5.442-4.718 1.702-9.877 1.702-14.595 0-13.545-4.887-28.147-7.551-43.366-7.551-.125 0-.25 0-.375 0-22.917.066-44.775 10.309-59.41 28.006-13.445 16.257-23.398 35.535-28.705 56.669-2.849 11.308-4.35 23.15-4.35 35.352 0 72.563 53.386 132.591 122.86 142.626 6.729.972 13.608 1.475 20.605 1.475 50.743 0 122.871-64.51 122.871-144.101-.001-12.201-1.503-24.044-4.361-35.351z" fill="#ffe5dc"/><g><g><path d="m326.462 246.433c-5.168-20.595-14.751-39.429-27.68-55.422-14.766-18.266-36.884-29.18-60.323-29.253-.136 0-.272-.001-.409-.001-7.933 0-15.697.73-23.233 2.116 16.67 4.003 31.755 13.528 42.757 27.138 12.929 15.993 22.512 34.827 27.68 55.422 2.858 11.308 4.36 23.15 4.36 35.352 0 72.562-53.397 132.579-122.871 142.615 6.729.972 13.606 1.485 20.604 1.485 79.236 0 143.474-64.51 143.474-144.101.001-12.201-1.5-24.044-4.359-35.351z" fill="#ffcbbe"/></g></g><g><g><g><g><g><path d="m88.616 512v-29.197c0-4.261 3.461-7.719 7.726-7.719s7.726 3.458 7.726 7.719v29.197z" fill="#ff6e80"/></g></g></g></g><g><g><path d="m292.201 482.803v29.197h-15.453v-29.197c0-4.261 3.451-7.719 7.726-7.719 4.265 0 7.727 3.458 7.727 7.719z" fill="#ff6e80"/></g></g></g></g><g><path d="m485.146 0h-99.789c-9.141 0-16.552 7.395-16.552 16.518v62.669 45.241c0 5.467 6.53 8.308 10.544 4.587l21.056-19.519c2.802-2.597 6.485-4.041 10.309-4.041h74.433c9.141 0 16.552-7.395 16.552-16.518v-72.419c-.001-9.123-7.411-16.518-16.553-16.518z" fill="#93ecdd"/><path d="m495.448 0h-27.622c9.141 0 16.552 7.451 16.552 16.573v72.418c0 8.753-6.827 15.896-15.454 16.463h26.524c9.141 0 16.552-7.395 16.552-16.518v-72.418c0-9.123-7.411-16.518-16.552-16.518z" fill="#00ddc4"/><g fill="#fff"><path d="m455.02 78.211h-50.135c-4.267 0-7.726-3.455-7.726-7.719s3.459-7.719 7.726-7.719h50.135c4.267 0 7.726 3.455 7.726 7.719s-3.459 7.719-7.726 7.719z"/><path d="m476.654 42.191h-71.769c-4.267 0-7.726-3.455-7.726-7.719s3.459-7.719 7.726-7.719h71.769c4.267 0 7.726 3.455 7.726 7.719s-3.459 7.719-7.726 7.719z"/></g></g><g><g><ellipse cx="110.636" cy="301.23" fill="#ffa1ac" rx="28.949" ry="23.03"/></g><g><ellipse cx="267.547" cy="301.23" fill="#ffa1ac" rx="28.949" ry="23.03"/></g><g fill="#495560"><path d="m141.286 283.669c-4.146 0-7.508-3.357-7.508-7.5 0-3.454-2.813-6.265-6.271-6.265s-6.271 2.811-6.271 6.265c0 4.143-3.361 7.5-7.508 7.5-4.146 0-7.508-3.357-7.508-7.5 0-11.726 9.549-21.265 21.286-21.265s21.287 9.539 21.287 21.265c0 4.143-3.361 7.5-7.507 7.5z"/><path d="m264.454 283.669c-4.146 0-7.508-3.357-7.508-7.5 0-3.454-2.813-6.265-6.271-6.265s-6.271 2.811-6.271 6.265c0 4.143-3.361 7.5-7.508 7.5s-7.508-3.357-7.508-7.5c0-11.726 9.549-21.265 21.286-21.265s21.287 9.539 21.287 21.265c.001 4.143-3.36 7.5-7.507 7.5z"/><path d="m189.091 306.41c-7.771 0-15.162-3.362-20.276-9.225-2.724-3.123-2.398-7.861.728-10.582 3.126-2.722 7.868-2.396 10.592.727 2.262 2.593 5.526 4.08 8.956 4.08s6.695-1.487 8.956-4.08c2.724-3.123 7.467-3.448 10.592-.727 3.126 2.721 3.452 7.459.728 10.582-5.114 5.863-12.504 9.225-20.276 9.225z"/></g></g></g></svg>